<svg width="28" height="28" viewBox="0 0 32 32" fill="none" xmlns="http://www.w3.org/2000/svg">
<path fill-rule="evenodd" clip-rule="evenodd" d="M11.9363 4.54568C12.9125 3.39831 14.3714 2.66699 15.9997 2.66699C18.9452 2.66699 21.333 5.05481 21.333 8.00033V12.4575C21.333 13.1939 20.7361 13.7909 19.9997 13.7909C19.2633 13.7909 18.6663 13.1939 18.6663 12.4575V8.00033C18.6663 6.52757 17.4724 5.33366 15.9997 5.33366C15.1861 5.33366 14.4585 5.6964 13.9674 6.27371C13.4902 6.83456 12.6487 6.90238 12.0878 6.4252C11.527 5.94802 11.4592 5.10653 11.9363 4.54568ZM11.9997 10.6667C12.7361 10.6667 13.333 11.2636 13.333 12V14.667C13.333 16.1398 14.5269 17.3337 15.9997 17.3337C16.5104 17.3337 16.9839 17.1914 17.3872 16.9449C18.0155 16.561 18.8362 16.7591 19.2201 17.3875C19.6041 18.0158 19.4059 18.8365 18.7776 19.2204C17.9676 19.7154 17.0149 20.0003 15.9997 20.0003C13.0542 20.0003 10.6663 17.6125 10.6663 14.667V12C10.6663 11.2636 11.2633 10.6667 11.9997 10.6667ZM6.66634 13.3337C7.40272 13.3337 7.99967 13.9306 7.99967 14.667C7.99967 19.0853 11.5814 22.667 15.9997 22.667C17.9191 22.667 19.6774 21.9927 21.056 20.8669C21.6263 20.4011 22.4663 20.4859 22.932 21.0562C23.3978 21.6265 23.3131 22.4665 22.7427 22.9323C21.23 24.1677 19.3699 24.9967 17.333 25.251V28.0003C17.333 28.7367 16.7361 29.3337 15.9997 29.3337C15.2633 29.3337 14.6663 28.7367 14.6663 28.0003V25.2511C9.40459 24.595 5.33301 20.1065 5.33301 14.667C5.33301 13.9306 5.92996 13.3337 6.66634 13.3337ZM25.333 13.3337C26.0694 13.3337 26.6663 13.9306 26.6663 14.667C26.6663 15.7465 26.5056 16.7908 26.2057 17.7762C25.9914 18.4806 25.2465 18.878 24.542 18.6636C23.8375 18.4492 23.4402 17.7043 23.6546 16.9998C23.8787 16.2634 23.9997 15.4805 23.9997 14.667C23.9997 13.9306 24.5966 13.3337 25.333 13.3337Z" fill="currentColor"/>
<path fill-rule="evenodd" clip-rule="evenodd" d="M4.39052 4.39052C4.91122 3.86983 5.75544 3.86983 6.27614 4.39052L27.6095 25.7239C28.1302 26.2446 28.1302 27.0888 27.6095 27.6095C27.0888 28.1302 26.2446 28.1302 25.7239 27.6095L4.39052 6.27614C3.86983 5.75544 3.86983 4.91122 4.39052 4.39052Z" fill="currentColor"/>
</svg>
